<svg preserveAspectRatio="none" width="100%" height="100%" overflow="visible" style="display: block;" viewBox="0 0 24 24" fill="none" xmlns="http://www.w3.org/2000/svg">
<g id="microphone">
<path id="Vector" d="M12 19C15.31 19 18 16.31 18 13V8C18 4.69 15.31 2 12 2C8.69 2 6 4.69 6 8V13C6 16.31 8.69 19 12 19Z" stroke="var(--stroke-0, #171717)" stroke-width="1.5" stroke-linecap="round" stroke-linejoin="round"/>
<path id="Vector_2" d="M3 11V13C3 17.97 7.03 22 12 22C16.97 22 21 17.97 21 13V11" stroke="var(--stroke-0, #171717)" stroke-width="1.5" stroke-linecap="round" stroke-linejoin="round"/>
<path id="Vector_3" d="M9.11 7.48C10.89 6.83 12.83 6.83 14.61 7.48" stroke="var(--stroke-0, #171717)" stroke-width="1.5" stroke-linecap="round" stroke-linejoin="round"/>
<path id="Vector_4" d="M10.03 10.48C11.23 10.15 12.5 10.15 13.7 10.48" stroke="var(--stroke-0, #171717)" stroke-width="1.5" stroke-linecap="round" stroke-linejoin="round"/>
<g id="Vector_5" opacity="0">
</g>
</g>
</svg>
